<svg xmlns="http://www.w3.org/2000/svg" width="308" height="226" viewBox="0 0 308 226">
  <path d="M 71.08 7.341 L 119.181 102.591 L 95.954 151.941 L 21.032 7.341 L 3.5 7.341 L 3.5 6.591 L 100.15 6.591 L 100.15 7.341 L 71.08 7.341 Z M 186.611 6.591 L 186.611 7.341 L 162.336 7.341 L 73.178 203.091 C 70.582 208.691 67.384 213.291 63.588 216.941 C 59.792 220.592 54.497 222.441 47.705 222.441 C 43.909 222.441 40.262 221.591 36.765 219.891 C 33.27 218.192 30.373 215.642 28.074 212.291 C 25.778 208.941 24.628 204.791 24.628 199.791 C 24.628 195.191 25.727 191.141 27.924 187.641 C 30.123 184.142 33.07 181.391 36.717 179.391 C 40.362 177.392 44.359 176.391 48.754 176.391 C 53.249 176.391 57.395 177.641 61.191 180.141 C 64.986 182.642 67.934 185.991 69.983 190.241 C 72.029 194.492 72.579 199.292 71.68 204.591 L 161.287 7.341 L 131.618 7.341 L 131.618 6.591 L 186.611 6.591 Z" stroke="#1F1A17" stroke-width="4" fill="#1F1A17"></path>
  <path d="M 131.628 219.26 L 131.628 218.51 L 151.257 218.51 L 151.257 7.01 L 131.628 7.01 L 131.628 6.26 L 193.064 6.26 L 193.064 60.41 C 194.863 42.211 199.758 28.16 207.7 18.31 C 215.641 8.461 226.379 3.56 239.966 3.56 C 250.855 3.56 261.144 6.41 270.834 12.11 C 280.524 17.81 288.415 26.011 294.461 36.71 C 300.503 47.41 303.5 60.26 303.5 75.26 C 303.5 90.26 300.503 103.111 294.461 113.86 C 288.415 124.61 280.524 132.86 270.834 138.61 C 261.144 144.361 250.855 147.26 239.966 147.26 C 226.48 147.26 215.741 142.261 207.749 132.31 C 199.758 122.36 194.863 108.26 193.064 89.96 L 193.064 218.51 L 212.694 218.51 L 212.694 219.26 L 131.628 219.26 Z M 230.825 143.51 C 236.719 143.51 241.464 140.81 245.06 135.46 C 248.656 130.111 251.305 122.36 253.002 112.16 C 254.701 101.96 255.549 89.66 255.549 75.26 C 255.549 60.86 254.701 48.56 253.002 38.41 C 251.305 28.261 248.656 20.56 245.06 15.26 C 241.464 9.961 236.719 7.31 230.825 7.31 C 224.431 7.31 218.388 9.76 212.644 14.71 C 206.9 19.66 202.205 27.16 198.559 37.21 C 194.912 47.26 193.064 59.96 193.064 75.26 C 193.064 90.56 194.912 103.261 198.559 113.36 C 202.205 123.46 206.9 131.011 212.644 136.01 C 218.388 141.01 224.431 143.51 230.825 143.51 Z" stroke="#1F1A17" stroke-width="4" fill="#1F1A17"></path>
</svg>
